{
  "accessors": [
    {
      "bufferView": 2,
      "componentType": 5126,
      "count": 2811,
      "max": [
        0.3469752371311188,
        0.05175868049263954,
        1.2318356037139893
      ],
      "min": [
        -0.34707874059677124,
        -0.05175722762942314,
        -0.27279433608055115
      ],
      "type": "VEC3"
    },
    {
      "bufferView": 2,
      "byteOffset": 33732,
      "componentType": 5126,
      "count": 2811,
      "max": [
        1.0,
        1.0,
        1.0
      ],
      "min": [
        -1.0,
        -1.0,
        -0.9999999403953552
      ],
      "type": "VEC3"
    },
    {
      "bufferView": 3,
      "componentType": 5126,
      "count": 2811,
      "max": [
        1.0,
        1.0,
        0.9998799562454224,
        1.0
      ],
      "min": [
        -1.0,
        -1.0,
        -0.9990728497505188,
        1.0
      ],
      "type": "VEC4"
    },
    {
      "bufferView": 1,
      "componentType": 5126,
      "count": 2811,
      "max": [
        0.9868761897087097,
        0.989479124546051
      ],
      "min": [
        0.007549252361059189,
        0.01330798864364624
      ],
      "type": "VEC2"
    },
    {
      "bufferView": 1,
      "byteOffset": 22488,
      "componentType": 5126,
      "count": 2811,
      "max": [
        0.9868761897087097,
        0.989479124546051
      ],
      "min": [
        0.007549252361059189,
        0.01330798864364624
      ],
      "type": "VEC2"
    },
    {
      "bufferView": 1,
      "byteOffset": 44976,
      "componentType": 5126,
      "count": 2811,
      "max": [
        0.9868761897087097,
        0.989479124546051
      ],
      "min": [
        0.007549252361059189,
        0.01330798864364624
      ],
      "type": "VEC2"
    },
    {
      "bufferView": 0,
      "componentType": 5125,
      "count": 7599,
      "type": "SCALAR"
    }
  ],
  "asset": {
    "extras": {
      "author": "Wrotzal (https://sketchfab.com/Wrotzal)",
      "license": "CC-BY-4.0 (http://creativecommons.org/licenses/by/4.0/)",
      "source": "https://sketchfab.com/3d-models/axe-c77222df8fba42da87fc9ee214cf4521",
      "title": "Axe"
    },
    "generator": "Sketchfab-12.68.0",
    "version": "2.0"
  },
  "bufferViews": [
    {
      "buffer": 0,
      "byteLength": 30396,
      "name": "floatBufferViews",
      "target": 34963
    },
    {
      "buffer": 0,
      "byteLength": 67464,
      "byteOffset": 30396,
      "byteStride": 8,
      "name": "floatBufferViews",
      "target": 34962
    },
    {
      "buffer": 0,
      "byteLength": 67464,
      "byteOffset": 97860,
      "byteStride": 12,
      "name": "floatBufferViews",
      "target": 34962
    },
    {
      "buffer": 0,
      "byteLength": 44976,
      "byteOffset": 165324,
      "byteStride": 16,
      "name": "floatBufferViews",
      "target": 34962
    }
  ],
  "buffers": [
    {
      "byteLength": 210300,
      "uri": "scene.bin"
    }
  ],
  "images": [
    {
      "uri": "textures/Material_baseColor.png"
    },
    {
      "uri": "textures/Material_metallicRoughness.png"
    },
    {
      "uri": "textures/Material_normal.png"
    }
  ],
  "materials": [
    {
      "doubleSided": true,
      "name": "Material",
      "normalTexture": {
        "index": 2
      },
      "pbrMetallicRoughness": {
        "baseColorTexture": {
          "index": 0
        },
        "metallicRoughnessTexture": {
          "index": 1
        }
      }
    }
  ],
  "meshes": [
    {
      "name": "Axe_Material_0",
      "primitives": [
        {
          "attributes": {
            "NORMAL": 1,
            "POSITION": 0,
            "TANGENT": 2,
            "TEXCOORD_0": 3,
            "TEXCOORD_1": 4,
            "TEXCOORD_2": 5
          },
          "indices": 6,
          "material": 0,
          "mode": 4
        }
      ]
    }
  ],
  "nodes": [
    {
      "children": [
        1
      ],
      "matrix": [
        0.3856598436832428,
        -0.9145902395248413,
        0.12161891907453516,
        0.0,
        -0.006795045919716358,
        -0.1346280127763746,
        -0.9908729195594788,
        0.0,
        0.9226160049438477,
        0.3813135027885437,
        -0.05813530087471,
        0.0,
        -146.45797729492188,
        -110.3887710571289,
        7.00110006332395,
        1.0
      ],
      "name": "Sketchfab_model"
    },
    {
      "children": [
        2
      ],
      "matrix": [
        1.0,
        0.0,
        0.0,
        0.0,
        0.0,
        0.0,
        1.0,
        0.0,
        0.0,
        -1.0,
        0.0,
        0.0,
        0.0,
        0.0,
        0.0,
        1.0
      ],
      "name": "Axe.fbx"
    },
    {
      "children": [
        3
      ],
      "name": "RootNode"
    },
    {
      "children": [
        4
      ],
      "matrix": [
        100.0,
        0.0,
        0.0,
        0.0,
        0.0,
        -1.629206793918314e-05,
        -99.99999999999868,
        0.0,
        0.0,
        99.99999999999868,
        -1.629206793918314e-05,
        0.0,
        0.0,
        0.0,
        0.0,
        1.0
      ],
      "name": "Axe"
    },
    {
      "mesh": 0,
      "name": "Axe_Material_0"
    }
  ],
  "samplers": [
    {
      "magFilter": 9729,
      "minFilter": 9987,
      "wrapS": 10497,
      "wrapT": 10497
    }
  ],
  "scene": 0,
  "scenes": [
    {
      "name": "Sketchfab_Scene",
      "nodes": [
        0
      ]
    }
  ],
  "textures": [
    {
      "sampler": 0,
      "source": 0
    },
    {
      "sampler": 0,
      "source": 1
    },
    {
      "sampler": 0,
      "source": 2
    }
  ]
}
